<svg width="1400" height="420" viewBox="0 0 1400 420" fill="none" xmlns="http://www.w3.org/2000/svg">
  <defs>
    <linearGradient id="bg" x1="80" y1="40" x2="1320" y2="380" gradientUnits="userSpaceOnUse">
      <stop stop-color="#0B1220"/>
      <stop offset="1" stop-color="#121E35"/>
    </linearGradient>
    <linearGradient id="accent" x1="175" y1="100" x2="345" y2="275" gradientUnits="userSpaceOnUse">
      <stop stop-color="#10BCE8"/>
      <stop offset="1" stop-color="#38D39F"/>
    </linearGradient>
    <linearGradient id="wave" x1="415" y1="280" x2="560" y2="280" gradientUnits="userSpaceOnUse">
      <stop stop-color="#10BCE8"/>
      <stop offset="1" stop-color="#38D39F"/>
    </linearGradient>
    <filter id="glow" x="0" y="0" width="1400" height="420" filterUnits="userSpaceOnUse" color-interpolation-filters="sRGB">
      <feGaussianBlur stdDeviation="12" result="blur"/>
      <feColorMatrix in="blur" type="matrix" values="0 0 0 0 0.06 0 0 0 0 0.84 0 0 0 0 0.75 0 0 0 0.35 0"/>
      <feBlend in="SourceGraphic" mode="screen"/>
    </filter>
  </defs>

  <rect x="20" y="20" width="1360" height="380" rx="48" fill="url(#bg)"/>
  <rect x="80" y="80" width="360" height="260" rx="36" fill="#0E172A" stroke="#1B2A46" stroke-width="4"/>

  <rect x="120" y="115" width="240" height="72" rx="20" fill="url(#accent)"/>
  <line x1="150" y1="123" x2="190" y2="183" stroke="#DDF7FF" stroke-width="10" stroke-linecap="round"/>
  <line x1="220" y1="123" x2="260" y2="183" stroke="#DDF7FF" stroke-width="10" stroke-linecap="round"/>
  <line x1="290" y1="123" x2="330" y2="183" stroke="#DDF7FF" stroke-width="10" stroke-linecap="round"/>

  <rect x="120" y="195" width="240" height="110" rx="20" fill="#12203A"/>
  <path d="M145 260C162 230 178 230 195 260C212 290 228 290 245 260C262 230 278 230 295 260C312 290 328 290 345 260" stroke="url(#wave)" stroke-width="10" stroke-linecap="round" fill="none" filter="url(#glow)"/>

  <text x="500" y="192" fill="#F6FAFF" font-size="92" font-weight="800" font-family="Segoe UI, Poppins, Helvetica, Arial, sans-serif" letter-spacing="1">REAPER</text>
  <text x="500" y="278" fill="#10BCE8" font-size="70" font-weight="700" font-family="Segoe UI, Poppins, Helvetica, Arial, sans-serif" letter-spacing="6">VIDEO FX</text>
  <text x="500" y="330" fill="#8DA4C8" font-size="28" font-weight="500" font-family="Segoe UI, Poppins, Helvetica, Arial, sans-serif">Audio-Driven Video Processing</text>
</svg>
